# xmcd
#
# Track frame offsets:
#	150
#	2150
#	42835
#	55662
#	145559
#	183168
#	232403
#
# Disc length: 3497 seconds
#
# Revision: 1
# Processed by: cddbd v1.5.2PL0 Copyright (c) Steve Scherf et al.
# Submitted via: audiograbber 1.83.01
#
DISCID=540da707
DTITLE=Grateful Dead - 73-11-20A Denver Coliseum, Denver CO
DYEAR=1900
DGENRE=
TTITLE0=Tuning
TTITLE1=Truckin'
TTITLE2=Drums > Jam
TTITLE3=The Other One
TTITLE4=Stella Blue
TTITLE5=Sugar Magnolia
TTITLE6=Uncle John's Band
EXTD=
EXTT0=
EXTT1=
EXTT2=
EXTT3=
EXTT4=
EXTT5=
EXTT6=
PLAYORDER=
